<svg width="20" height="20" viewBox="0 0 20 20" fill="none" xmlns="http://www.w3.org/2000/svg">
<circle cx="10" cy="10" r="10" fill="#0A6ADA"/>
<path d="M14.2863 6.00575L8.44467 11.8853L5.59973 8.66103C5.3342 8.35757 4.84107 8.31964 4.53761 8.58517C4.23415 8.8507 4.19622 9.34382 4.46175 9.64728L7.83775 13.4785L7.87568 13.5164L7.91362 13.5543C7.95155 13.5543 7.95155 13.5923 7.98948 13.5923L8.02741 13.6302C8.06535 13.6302 8.10328 13.6681 8.14121 13.6681H8.17914C8.21708 13.6681 8.29294 13.6681 8.33087 13.6681C8.36881 13.6681 8.40674 13.6681 8.4826 13.6681H8.52054C8.55847 13.6681 8.5964 13.6681 8.63433 13.6302C8.63433 13.6302 8.67227 13.6302 8.67227 13.5923C8.7102 13.5923 8.7102 13.5543 8.74813 13.5543L8.78607 13.5164L8.824 13.4785L15.2725 7.02993C15.576 6.72647 15.576 6.27128 15.2725 5.96782C14.9691 5.66436 14.5898 5.70229 14.2863 6.00575Z" fill="white"/>
</svg>
