<?xml version="1.0" standalone="no"?>
<!DOCTYPE svg PUBLIC "-//W3C//DTD SVG 20010904//EN"
 "http://www.w3.org/TR/2001/REC-SVG-20010904/DTD/svg10.dtd">
<svg version="1.0" xmlns="http://www.w3.org/2000/svg"
 width="109.000000pt" height="122.000000pt" viewBox="0 0 109.000000 122.000000"
 preserveAspectRatio="xMidYMid meet">
<metadata>
Created by potrace 1.16, written by Peter Selinger 2001-2019
</metadata>
<g transform="translate(0.000000,122.000000) scale(0.100000,-0.100000)"
fill="#000000" stroke="none">
<path d="M760 1163 c-26 -23 -32 -36 -32 -68 0 -32 6 -45 32 -68 27 -24 39
-28 69 -23 21 3 45 16 59 31 47 55 14 140 -59 151 -30 5 -42 1 -69 -23z"/>
<path d="M247 1149 c-11 -6 -25 -26 -33 -45 -25 -61 16 -124 81 -124 39 0 65
18 81 56 26 62 -16 124 -83 124 -15 0 -36 -5 -46 -11z"/>
<path d="M665 947 c-20 -17 -39 -59 -75 -167 -26 -80 -50 -138 -53 -130 -3 8
-23 69 -44 135 -50 156 -61 165 -205 165 -100 0 -100 0 -132 -32 -26 -27 -40
-60 -75 -176 -49 -165 -50 -187 -6 -187 30 0 30 1 67 129 21 71 40 131 43 134
20 20 10 -32 -39 -202 -31 -107 -56 -202 -56 -211 0 -12 12 -15 55 -15 l55 0
2 -171 c3 -151 5 -173 21 -183 12 -8 22 -8 35 0 15 10 17 32 20 183 2 142 5
171 17 171 12 0 15 -29 17 -171 3 -151 5 -173 21 -183 12 -8 22 -8 35 0 15 10
17 32 20 183 l2 171 55 0 c43 0 55 3 55 15 0 9 -26 103 -57 210 -49 168 -59
225 -38 203 3 -2 22 -63 43 -134 l38 -129 48 -8 c28 -4 53 -4 58 1 5 5 29 68
52 141 24 73 46 135 50 138 3 4 6 -167 6 -379 0 -360 1 -386 18 -401 26 -23
58 -21 76 5 13 19 16 60 16 247 0 147 3 222 10 215 5 -5 11 -106 12 -239 l3
-230 28 -9 c19 -7 34 -7 45 0 15 10 17 48 22 399 4 294 8 389 17 392 9 3 13
-33 15 -149 l3 -153 24 -3 c44 -7 51 18 51 177 0 168 -9 210 -51 245 -29 25
-35 26 -164 26 -125 0 -136 -2 -160 -23z"/>
</g>
</svg>
