<svg width="14" height="14" viewBox="0 0 14 14" fill="none" xmlns="http://www.w3.org/2000/svg">
<g clip-path="url(#clip0_0_12648)">
<path d="M11.4191 1.13284e-05C11.0781 -0.000999265 10.7403 0.0656153 10.4252 0.196001C10.1101 0.326387 9.82395 0.517957 9.58336 0.759628L4.87645 5.4688C4.47593 5.86674 4.15839 6.34022 3.94223 6.8618C3.72607 7.38338 3.61559 7.94268 3.6172 8.50727V10.3995H5.50946C6.07406 10.4011 6.63336 10.2907 7.15493 10.0745C7.67651 9.85834 8.15 9.5408 8.54793 9.14028L13.2571 4.43337C13.6212 4.07038 13.8693 3.60743 13.9699 3.10324C14.0705 2.59905 14.0191 2.07634 13.8222 1.6014C13.6253 1.12647 13.2918 0.720718 12.864 0.435613C12.4361 0.150508 11.9332 -0.00110267 11.4191 1.13284e-05ZM12.2963 3.47255L7.58937 8.18172C7.3169 8.45574 6.99276 8.67297 6.63573 8.82082C6.27871 8.96868 5.89589 9.04422 5.50946 9.04307H4.97366V8.50727C4.97282 8.12122 5.0485 7.73883 5.19635 7.38222C5.34419 7.0256 5.56127 6.70183 5.83502 6.42963L10.5442 1.72045C10.7793 1.50005 11.0909 1.37972 11.4131 1.38491C11.7353 1.39011 12.0428 1.52041 12.2707 1.74828C12.4986 1.97615 12.6289 2.2837 12.6341 2.60591C12.6393 2.92812 12.5189 3.23972 12.2985 3.47481L12.2963 3.47255Z" fill="#0076FF"/>
<path d="M2.48684 14.017H9.72129C10.3808 14.017 11.0134 13.755 11.4798 13.2886C11.9461 12.8222 12.2081 12.1897 12.2081 11.5301V9.49544H10.8517V11.5301C10.8517 11.8299 10.7326 12.1174 10.5206 12.3294C10.3086 12.5414 10.0211 12.6605 9.72129 12.6605H2.48684C2.18705 12.6605 1.89953 12.5414 1.68754 12.3294C1.47555 12.1174 1.35646 11.8299 1.35646 11.5301V4.29568C1.35646 3.99588 1.47555 3.70837 1.68754 3.49638C1.89953 3.28439 2.18705 3.1653 2.48684 3.1653H4.52153V1.80884H2.48684C1.82729 1.80884 1.19475 2.07084 0.728379 2.53722C0.262006 3.00359 0 3.63613 0 4.29568V11.5301C0 12.1897 0.262006 12.8222 0.728379 13.2886C1.19475 13.755 1.82729 14.017 2.48684 14.017Z" fill="#0076FF"/>
</g>
<defs>
<clipPath id="clip0_0_12648">
<rect width="14" height="14" fill="white"/>
</clipPath>
</defs>
</svg>
