<?xml version="1.0" standalone="no"?>
<!DOCTYPE svg PUBLIC "-//W3C//DTD SVG 20010904//EN"
 "http://www.w3.org/TR/2001/REC-SVG-20010904/DTD/svg10.dtd">
<svg version="1.0" xmlns="http://www.w3.org/2000/svg"
 width="1600.000000pt" height="1574.000000pt" viewBox="0 0 1600.000000 1574.000000"
 preserveAspectRatio="xMidYMid meet">
<metadata>
Created by potrace 1.16, written by Peter Selinger 2001-2019
</metadata>
<g transform="translate(0.000000,1574.000000) scale(0.100000,-0.100000)"
fill="#000000" stroke="none">
<path d="M7910 15715 c-58 -13 -130 -33 -160 -45 -30 -12 -68 -26 -84 -32
-165 -62 -392 -230 -516 -385 -118 -146 -169 -239 -244 -440 -59 -160 -76
-466 -36 -653 35 -167 96 -323 164 -423 14 -21 26 -40 26 -42 0 -3 29 -43 65
-89 87 -113 240 -252 346 -315 245 -145 458 -205 724 -206 307 0 561 82 820
267 64 46 177 155 237 230 142 177 219 333 275 558 26 109 26 442 -1 550 -39
155 -104 314 -167 408 -16 24 -29 45 -29 48 0 3 -26 37 -57 77 -68 86 -181
197 -243 239 -25 17 -54 39 -65 48 -11 9 -36 26 -55 36 -19 10 -42 24 -50 30
-8 6 -53 28 -99 48 -208 91 -334 116 -570 115 -146 -1 -194 -5 -281 -24z"/>
<path d="M345 15471 c-115 -34 -205 -91 -244 -154 -18 -30 -47 -110 -85 -236
-19 -62 -22 -317 -6 -416 5 -33 15 -98 20 -145 6 -47 17 -121 25 -165 7 -44
23 -136 35 -205 12 -69 28 -154 35 -190 7 -36 23 -112 35 -170 37 -181 68
-315 105 -445 27 -96 87 -290 101 -327 7 -21 23 -66 34 -100 47 -139 145 -383
227 -558 138 -298 246 -481 475 -805 144 -205 209 -298 242 -350 21 -33 46
-71 56 -85 32 -46 111 -218 126 -272 10 -41 12 -93 8 -223 -5 -119 -1 -243 11
-415 14 -184 18 -367 18 -740 0 -444 -2 -515 -21 -685 -64 -559 -99 -795 -178
-1210 -31 -158 -107 -505 -140 -635 -7 -30 -23 -95 -34 -145 -11 -49 -27 -112
-34 -140 -8 -27 -24 -90 -35 -140 -12 -49 -30 -121 -40 -160 -11 -38 -27 -99
-37 -135 -9 -36 -25 -94 -34 -130 -10 -36 -26 -94 -35 -130 -26 -97 -73 -247
-101 -317 -13 -35 -36 -93 -50 -130 -14 -38 -46 -120 -70 -183 -62 -160 -80
-207 -98 -265 -8 -27 -22 -72 -31 -100 -9 -27 -22 -94 -31 -149 -32 -218 31
-404 197 -576 62 -64 284 -259 344 -302 105 -75 155 -108 162 -108 3 0 14 -6
22 -14 16 -13 341 -202 490 -283 25 -14 60 -33 76 -43 34 -20 118 -66 154 -86
23 -12 23 -15 22 -153 -2 -143 8 -224 51 -421 26 -121 65 -281 82 -345 8 -27
21 -75 30 -105 51 -185 144 -383 261 -560 117 -176 194 -265 300 -349 196
-155 305 -116 415 147 54 129 52 125 115 344 27 96 35 211 35 498 0 193 -5
305 -15 374 -25 167 -18 203 44 230 112 49 371 65 506 31 166 -42 202 -89 245
-318 11 -59 20 -122 20 -140 1 -33 37 -194 64 -282 8 -27 43 -138 76 -245 34
-107 65 -208 70 -225 13 -50 85 -252 127 -360 32 -80 127 -272 181 -365 92
-160 180 -252 266 -280 61 -20 163 -8 238 27 195 93 261 224 303 608 34 304 5
730 -100 1470 -7 55 -17 126 -20 159 -10 84 -29 143 -65 192 -30 42 -30 44
-15 74 21 41 108 108 233 180 57 33 105 60 107 60 5 0 141 87 212 134 117 80
431 409 602 631 17 22 34 45 39 50 25 33 83 127 92 150 15 40 12 73 -7 84 -10
5 -46 12 -79 16 -34 4 -80 16 -102 28 -33 18 -280 163 -357 210 -70 43 -202
136 -270 190 -177 142 -549 538 -602 640 -67 130 -127 374 -128 522 0 88 22
146 93 241 49 65 69 84 88 84 30 0 32 31 6 75 -46 75 -119 288 -217 630 -8 28
-24 82 -35 120 -55 190 -76 266 -131 475 -87 331 -119 658 -114 1164 2 275 0
319 -16 389 -25 105 -24 123 8 144 24 16 56 18 298 18 191 1 311 6 410 18 77
9 201 24 275 33 197 23 435 63 620 105 183 41 267 61 315 75 28 8 91 26 140
40 50 15 108 31 130 37 89 22 172 51 202 69 75 45 100 156 68 309 -10 46 -21
102 -25 124 -4 22 -15 67 -24 100 -12 40 -17 95 -17 165 1 85 -2 110 -17 132
-63 95 -201 123 -667 138 -369 11 -554 30 -890 91 -60 11 -148 27 -195 35
-626 110 -1202 257 -1577 404 -29 11 -74 28 -100 38 -226 87 -539 258 -771
419 -144 100 -167 117 -177 127 -5 6 -42 37 -82 68 -149 120 -329 297 -458
453 -28 33 -53 62 -56 65 -7 6 -101 134 -153 209 -46 64 -151 235 -193 311
-16 30 -40 73 -53 95 -127 223 -353 691 -435 900 -102 264 -112 289 -145 380
-178 482 -320 726 -490 842 -93 63 -176 76 -285 44z"/>
<path d="M13125 15281 c-114 -19 -203 -57 -312 -135 -72 -51 -427 -401 -513
-506 -82 -100 -170 -199 -228 -258 -60 -61 -282 -254 -417 -362 -44 -35 -82
-67 -85 -71 -7 -9 -291 -221 -312 -234 -10 -5 -57 -37 -105 -70 -49 -33 -97
-65 -108 -71 -11 -6 -49 -29 -85 -51 -36 -22 -112 -67 -170 -100 -333 -191
-631 -336 -920 -448 -52 -20 -105 -41 -117 -45 -12 -5 -57 -21 -100 -34 -43
-14 -91 -30 -108 -36 -131 -42 -479 -129 -740 -183 -90 -19 -249 -52 -345 -71
-41 -8 -120 -24 -175 -35 -316 -65 -828 -159 -1180 -216 -49 -8 -142 -23 -205
-34 -63 -11 -158 -27 -210 -36 -495 -84 -1122 -217 -1370 -289 -25 -8 -74 -21
-110 -31 -73 -20 -144 -42 -275 -86 -49 -16 -103 -34 -120 -39 -37 -11 -110
-37 -150 -54 -16 -7 -50 -21 -75 -31 -166 -66 -283 -136 -295 -176 -17 -53 36
-73 390 -151 50 -10 117 -26 150 -33 163 -39 249 -54 580 -104 125 -19 176
-26 530 -72 88 -11 207 -27 265 -35 58 -8 196 -19 306 -24 348 -16 540 -44
575 -86 6 -8 15 -14 20 -14 18 0 90 -82 118 -133 69 -129 107 -309 121 -572
27 -526 32 -610 46 -754 16 -181 19 -634 4 -830 -6 -73 -15 -215 -20 -315 -8
-170 -26 -275 -51 -300 -17 -18 -9 -36 16 -36 13 0 100 38 192 84 92 46 192
89 221 95 180 37 503 -26 754 -148 77 -37 224 -147 283 -212 121 -132 232
-296 313 -464 80 -163 87 -198 86 -400 -1 -224 -31 -410 -100 -612 -44 -130
-60 -159 -110 -197 -53 -40 -48 -46 11 -15 128 68 208 111 242 130 21 12 49
29 63 36 14 8 43 25 65 39 22 13 47 27 55 31 52 23 386 242 400 263 12 19 256
193 317 227 145 82 317 143 399 143 89 0 181 -51 296 -164 109 -106 147 -206
147 -386 1 -137 -20 -242 -84 -420 -45 -123 -151 -309 -240 -416 -120 -146
-472 -473 -715 -664 -52 -41 -123 -98 -158 -127 -34 -29 -69 -53 -77 -53 -8 0
-24 -9 -35 -20 -18 -18 -20 -33 -20 -134 0 -62 6 -176 14 -252 16 -154 30
-506 46 -1164 27 -1135 44 -1671 60 -1905 6 -82 14 -225 20 -317 29 -515 144
-697 440 -698 73 0 214 30 234 51 6 5 16 9 24 9 18 0 139 79 183 121 33 31
127 147 157 194 54 85 114 239 150 385 48 197 106 621 132 965 4 66 13 185 19
265 57 759 68 1107 53 1670 -6 234 -18 522 -26 640 -17 253 -33 497 -46 705
-5 83 -16 238 -24 345 -26 329 -46 607 -56 775 -6 88 -15 210 -21 270 -5 61
-10 196 -9 300 1 105 1 198 1 207 -2 38 -205 239 -541 533 -277 243 -615 580
-706 705 -137 186 -187 271 -379 645 -48 94 -91 175 -95 180 -15 19 -119 230
-133 270 -90 256 -102 310 -101 480 1 110 6 157 23 220 79 294 138 372 335
449 184 72 174 70 306 70 174 -1 252 -30 408 -152 111 -87 344 -319 419 -419
50 -66 168 -249 210 -326 28 -50 130 -182 156 -201 26 -19 28 -19 45 -3 16 17
17 65 17 700 0 838 -3 813 134 993 81 108 283 309 412 411 19 15 42 35 51 43
8 8 41 38 74 65 97 83 237 206 279 246 22 20 126 110 230 199 415 355 627 566
840 835 22 28 42 52 45 55 15 14 132 164 175 224 28 38 72 98 98 135 161 222
360 591 438 810 34 97 59 207 59 263 0 99 -52 229 -138 345 -73 97 -119 138
-199 175 -55 26 -76 30 -175 33 -62 2 -135 0 -163 -4z"/>
<path d="M3760 14586 c-131 -32 -209 -60 -318 -117 -127 -67 -211 -128 -314
-232 -178 -179 -287 -383 -339 -630 -25 -116 -26 -376 -4 -475 62 -270 175
-477 356 -653 134 -130 306 -238 464 -291 159 -53 205 -61 394 -66 162 -3 195
-1 280 18 174 39 363 118 464 194 23 17 53 39 67 47 38 25 171 157 219 218
108 138 195 321 236 502 36 154 36 374 0 528 -95 413 -372 736 -768 895 -161
65 -239 79 -452 82 -170 3 -200 1 -285 -20z"/>
<path d="M15392 11177 c-23 -24 -115 -204 -152 -297 -12 -30 -30 -74 -41 -98
-10 -23 -19 -47 -19 -54 0 -11 -220 -455 -285 -573 -96 -175 -226 -361 -369
-529 -168 -195 -217 -248 -381 -411 -211 -210 -226 -224 -325 -297 -285 -209
-605 -342 -915 -379 -494 -59 -1100 113 -1514 429 -308 235 -557 491 -751 772
-19 28 -51 73 -70 100 -19 27 -82 115 -139 195 -116 163 -141 194 -256 310
-138 138 -236 213 -360 274 -71 35 -200 37 -265 3 -98 -51 -170 -148 -196
-263 -28 -130 -35 -201 -29 -309 7 -141 38 -237 186 -586 105 -246 284 -561
415 -729 102 -131 603 -632 864 -865 106 -95 163 -147 259 -236 123 -114 192
-173 244 -208 123 -82 153 -140 173 -341 8 -77 18 -313 24 -525 5 -212 15
-457 20 -545 6 -88 15 -270 20 -405 5 -135 12 -265 15 -290 3 -25 10 -137 15
-250 9 -186 17 -307 51 -730 6 -74 17 -214 24 -310 32 -409 91 -1094 126
-1455 63 -654 115 -990 183 -1185 31 -87 99 -143 281 -229 88 -42 122 -51 203
-58 136 -11 238 41 315 160 60 94 65 103 96 189 39 113 64 221 91 394 24 164
28 383 21 1434 -4 634 -4 635 23 885 14 138 28 257 31 265 2 8 9 52 14 98 6
45 16 92 22 104 l12 22 10 -24 c7 -16 10 -127 8 -295 -3 -266 6 -449 34 -695
8 -69 17 -154 20 -190 7 -76 30 -275 51 -442 21 -168 42 -464 54 -763 10 -265
32 -450 66 -555 38 -118 111 -195 237 -248 54 -22 77 -26 182 -26 151 -1 215
20 302 99 148 134 220 425 298 1205 57 576 72 1536 55 3455 -6 726 -14 1323
-16 1327 -2 3 4 9 13 13 10 3 30 23 44 44 15 22 66 64 115 97 114 76 197 160
326 330 441 580 673 946 792 1245 21 52 44 110 52 129 38 95 137 438 177 615
65 281 77 344 107 548 28 193 28 426 0 489 -60 137 -177 188 -430 188 -130 0
-138 -1 -158 -23z"/>
<path d="M12369 10970 c-314 -67 -561 -243 -726 -516 -37 -61 -113 -242 -113
-268 0 -8 -7 -41 -15 -73 -54 -205 -14 -488 100 -708 63 -123 117 -195 217
-291 59 -58 170 -144 184 -144 3 0 18 -8 32 -18 33 -23 185 -84 272 -108 93
-27 396 -27 490 0 303 86 513 245 677 511 40 64 86 178 116 285 30 105 32 411
3 510 -78 274 -189 448 -381 601 -150 119 -265 173 -460 215 -134 29 -272 30
-396 4z"/>
<path d="M7690 8080 c-267 -42 -541 -196 -693 -389 -28 -36 -54 -68 -57 -71
-24 -22 -104 -174 -136 -258 -33 -89 -64 -259 -64 -356 0 -139 46 -327 111
-460 87 -176 245 -349 414 -453 11 -7 57 -31 102 -53 377 -183 804 -152 1153
83 409 275 580 778 419 1233 -102 288 -338 533 -624 649 -152 61 -233 77 -410
80 -88 2 -185 0 -215 -5z"/>
<path d="M10419 6855 c-86 -30 -213 -90 -267 -126 -24 -16 -45 -29 -47 -29 -4
0 -87 -58 -210 -148 -323 -236 -428 -305 -570 -382 -44 -23 -84 -46 -90 -50
-23 -17 -245 -128 -300 -150 -33 -13 -65 -27 -70 -31 -18 -13 -255 -85 -335
-102 -196 -43 -310 -50 -822 -54 -470 -4 -506 -3 -640 17 -243 36 -369 82
-604 217 -153 87 -259 140 -499 245 -385 169 -510 209 -600 192 -56 -10 -107
-66 -123 -133 -28 -121 -9 -245 54 -360 139 -250 335 -464 564 -617 112 -74
220 -142 332 -209 37 -22 134 -81 168 -102 44 -27 56 -34 320 -176 157 -84
293 -191 319 -252 33 -74 41 -219 51 -845 21 -1405 78 -2667 135 -3045 66
-432 146 -622 289 -693 59 -30 197 -31 281 -2 137 47 215 126 278 280 36 87
83 253 97 342 5 37 12 73 15 80 3 7 12 65 21 128 13 88 18 237 24 630 6 468 9
524 28 616 23 112 40 156 56 151 25 -8 58 -90 67 -165 4 -42 13 -311 19 -597
10 -532 16 -619 66 -915 66 -396 163 -540 365 -540 67 0 82 4 155 40 203 103
300 263 363 600 30 163 51 315 61 440 23 307 31 420 40 600 23 433 31 1022 27
1930 -3 842 -6 963 -20 1020 -9 36 -16 93 -17 128 0 124 79 221 300 366 74 49
166 110 205 135 114 76 432 401 592 606 74 96 183 273 183 298 0 9 4 18 9 21
5 4 21 45 36 94 15 48 34 107 41 131 21 67 37 209 31 274 -6 69 -35 116 -88
146 -53 30 -199 28 -290 -4z"/>
</g>
</svg>
