<svg width="20" height="20" viewBox="0 0 20 20" fill="none" xmlns="http://www.w3.org/2000/svg">
<g clip-path="url(#clip0_0_1978)">
<path d="M18.8605 16.9405H2.07581C1.44748 16.9405 0.936279 16.4293 0.936279 15.801V6.24325C0.936279 5.61493 1.44748 5.10376 2.07581 5.10376H18.8605C19.4888 5.10376 20 5.61493 20 6.24325V15.8009C20.0001 16.4293 19.4888 16.9405 18.8605 16.9405ZM18.8605 6.27571H18.8609H18.8605Z" fill="#FFEF31"/>
<path d="M18.8605 5.10376H10.4648V16.9405H18.8604C19.4887 16.9405 20 16.4293 20 15.801V6.24325C20 5.61493 19.4888 5.10376 18.8605 5.10376Z" fill="#EAD000"/>
<path d="M17.0701 12.8375H12.8902C12.5666 12.8375 12.3042 12.5751 12.3042 12.2515C12.3042 11.9279 12.5666 11.6655 12.8902 11.6655H17.0701C17.3937 11.6655 17.6561 11.9279 17.6561 12.2515C17.6561 12.5751 17.3937 12.8375 17.0701 12.8375Z" fill="#152659"/>
<path d="M15.7027 15.1829H12.8902C12.5666 15.1829 12.3042 14.9206 12.3042 14.597C12.3042 14.2733 12.5666 14.011 12.8902 14.011H15.7027C16.0263 14.011 16.2886 14.2733 16.2886 14.597C16.2886 14.9206 16.0263 15.1829 15.7027 15.1829Z" fill="#152659"/>
<path d="M20 8.24806H8.30636C8.76682 8.06153 9.2717 7.80034 9.61125 7.46078C10.6288 6.44322 10.6288 4.78753 9.61125 3.77C9.11833 3.27708 8.46293 3.00562 7.76586 3.00562C7.06878 3.00562 6.41342 3.27708 5.9205 3.77C5.61263 4.07787 5.36902 4.52177 5.18721 4.94511C5.0054 4.52177 4.76179 4.07787 4.45392 3.77C3.961 3.27708 3.30561 3.00562 2.60857 3.00562C1.91145 3.00562 1.2561 3.27708 0.763174 3.77C-0.254392 4.78753 -0.254392 6.44322 0.763174 7.46082C1.10273 7.80038 1.60764 8.06157 2.06806 8.2481H0.936272V9.42005H3.63258L2.81921 10.211C2.5872 10.4366 2.582 10.8076 2.8076 11.0396C3.0332 11.2717 3.40421 11.2768 3.63621 11.0512L4.68616 10.0302V16.3541C4.68616 16.6777 4.94852 16.9401 5.27214 16.9401C5.59575 16.9401 5.85811 16.6777 5.85811 16.3541V10.098L6.89248 11.183C7.0076 11.3038 7.16199 11.3646 7.31665 11.3646C7.46193 11.3646 7.60745 11.3109 7.72093 11.2027C7.95516 10.9794 7.96403 10.6085 7.7407 10.3743L6.83095 9.42001H20V8.24806ZM5.98047 6.21313C6.17864 5.5091 6.48757 4.8603 6.74919 4.59869C7.02077 4.32711 7.38181 4.17757 7.76586 4.17757C8.14994 4.17757 8.51098 4.32715 8.78256 4.59869C9.34318 5.15931 9.34318 6.07148 8.78256 6.6321C8.52098 6.89368 7.87215 7.2026 7.16812 7.40082C6.46304 7.59931 5.98754 7.61501 5.79362 7.58759C5.76623 7.39387 5.78194 6.91825 5.98047 6.21313ZM1.59178 4.59869C1.86336 4.32711 2.2244 4.17757 2.60849 4.17757C2.99254 4.17757 3.35358 4.32715 3.62516 4.59869C3.88674 4.8603 4.19566 5.5091 4.39388 6.21313C4.59241 6.91829 4.60807 7.39391 4.58069 7.58763C4.38685 7.61505 3.91127 7.59931 3.20618 7.40086C2.50215 7.20264 1.85332 6.89376 1.59174 6.63214C1.03116 6.07148 1.03116 5.15931 1.59178 4.59869Z" fill="#F90053"/>
<path d="M20 8.2478H10.4648V9.41975H20V8.2478Z" fill="#A50043"/>
</g>
<defs>
<clipPath id="clip0_0_1978">
<rect width="20" height="20" fill="white"/>
</clipPath>
</defs>
</svg>
