<svg width="18" height="18" viewBox="0 0 18 18" fill="none" xmlns="http://www.w3.org/2000/svg">
<path d="M10.6359 9.00198L2.28405 17.0442C1.89295 16.7769 1.66074 16.3324 1.66485 15.8587V2.14528C1.66074 1.67159 1.89295 1.227 2.28405 0.959717L10.6359 9.00198Z" fill="#2196F3"/>
<path d="M13.5582 6.19256L10.6358 9.00169L2.28394 0.959429C2.3154 0.935041 2.34818 0.912351 2.38209 0.891467C2.8235 0.623934 3.37484 0.615297 3.82442 0.868812L13.5582 6.19256Z" fill="#4CAF50"/>
<path d="M17.1 9.0015C17.1054 9.53625 16.8149 10.0302 16.3449 10.2853L13.5584 11.8106L10.636 9.0015L13.5584 6.19238L16.3449 7.71775C16.8149 7.97283 17.1054 8.46676 17.1 9.0015Z" fill="#FFC107"/>
<path d="M13.5582 11.8104L3.82442 17.1341C3.37385 17.3837 2.82459 17.3751 2.38209 17.1115C2.34818 17.0906 2.3154 17.0679 2.28394 17.0435L10.6358 9.00122L13.5582 11.8104Z" fill="#F44336"/>
</svg>
