<?xml version="1.0" standalone="no"?>
<!DOCTYPE svg PUBLIC "-//W3C//DTD SVG 20010904//EN"
 "http://www.w3.org/TR/2001/REC-SVG-20010904/DTD/svg10.dtd">
<svg version="1.0" xmlns="http://www.w3.org/2000/svg"
 width="50.000000pt" height="50.000000pt" viewBox="0 0 50.000000 50.000000"
 preserveAspectRatio="xMidYMid meet">
<metadata>
Created by potrace 1.16, written by Peter Selinger 2001-2019
</metadata>
<g transform="translate(0.000000,50.000000) scale(0.100000,-0.100000)"
fill="#000000" stroke="none">
<path d="M0 250 l0 -250 200 0 200 0 0 60 c0 53 -2 60 -20 60 -26 0 -26 31 0
55 42 38 27 45 -89 45 -122 0 -141 4 -141 30 0 26 19 30 141 30 116 0 131 7
89 45 -26 24 -26 55 0 55 18 0 20 7 20 60 l0 60 -200 0 -200 0 0 -250z"/>
<path d="M370 358 c0 -7 19 -32 42 -55 l42 -43 -147 0 c-91 0 -147 -4 -147
-10 0 -6 56 -10 147 -10 l147 0 -42 -43 c-42 -43 -53 -67 -29 -67 18 0 117
102 117 121 0 17 -100 119 -118 119 -7 0 -12 -5 -12 -12z"/>
</g>
</svg>
