<svg width="16" height="16" viewBox="0 0 16 16" fill="none" xmlns="http://www.w3.org/2000/svg">
<g clip-path="url(#clip0_0_23178)">
<path d="M8 14.8572C11.781 14.8572 14.8571 11.781 14.8571 8.00009C14.8571 4.21914 11.781 1.14295 8 1.14295C4.21905 1.14295 1.14286 4.21914 1.14286 8.00009C1.14286 11.781 4.21905 14.8572 8 14.8572ZM8 9.15527e-05C12.4183 9.15527e-05 16 3.58181 16 8.00009C16 12.4184 12.4183 16.0001 8 16.0001C3.58172 16.0001 0 12.4184 0 8.00009C0 3.58181 3.58172 9.15527e-05 8 9.15527e-05ZM6.09524 10.4763H7.42857V6.26866C7.42857 6.11711 7.48878 5.97177 7.59594 5.8646C7.7031 5.75744 7.84845 5.69723 8 5.69723C8.03276 5.69723 8.064 5.70142 8.09524 5.70676C8.12666 5.70087 8.15852 5.69769 8.19048 5.69723H9.33333C9.40838 5.69722 9.4827 5.71199 9.55204 5.7407C9.62138 5.76941 9.68439 5.8115 9.73746 5.86457C9.79053 5.91763 9.83263 5.98063 9.86135 6.04996C9.89008 6.1193 9.90486 6.19361 9.90486 6.26866C9.90486 6.34371 9.89008 6.41803 9.86135 6.48736C9.83263 6.5567 9.79053 6.61969 9.73746 6.67276C9.68439 6.72582 9.62138 6.76791 9.55204 6.79662C9.4827 6.82533 9.40838 6.8401 9.33333 6.84009H8.57143V10.4763H9.90476C10.0563 10.4763 10.2017 10.5365 10.3088 10.6436C10.416 10.7508 10.4762 10.8962 10.4762 11.0477C10.4762 11.1993 10.416 11.3446 10.3088 11.4518C10.2017 11.5589 10.0563 11.6191 9.90476 11.6191H6.09524C5.94369 11.6191 5.79834 11.5589 5.69118 11.4518C5.58401 11.3446 5.52381 11.1993 5.52381 11.0477C5.52381 10.8962 5.58401 10.7508 5.69118 10.6436C5.79834 10.5365 5.94369 10.4763 6.09524 10.4763ZM8 5.22942C7.68457 5.22942 7.42857 4.99704 7.42857 4.70981C7.42857 4.42333 7.68457 4.19019 8 4.19019C8.31543 4.19019 8.57143 4.42295 8.57143 4.70981C8.57143 4.99704 8.31543 5.22942 8 5.22942Z" fill="#0A6ADA"/>
</g>
<defs>
<clipPath id="clip0_0_23178">
<rect width="16" height="16" fill="white"/>
</clipPath>
</defs>
</svg>
