<svg width="234" height="174" viewBox="0 0 234 174" fill="none" xmlns="http://www.w3.org/2000/svg">
<g filter="url(#filter0_d_0_2162)">
<path d="M74.112 53.5208C75.5264 53.7704 75.984 54.4152 75.984 55.3304C75.984 56.0584 75.672 57.2024 74.9856 58.3048C74.6528 58.2632 74.2992 58.2424 73.9872 58.2424C73.6336 58.2424 73.3424 58.2632 73.1136 58.3048C73.4256 57.14 73.7584 55.6216 74.112 53.5208ZM71.72 53.5416C71.304 56.3288 70.3056 60.0104 69.2656 62.2152C67.6432 62.3608 66.9152 62.5688 66.9152 63.3592C66.9152 64.6488 67.7472 65.46 68.2672 65.46C68.7664 65.46 69.2032 65.1688 70.0768 64.4616C72.136 65.8136 73.4256 66.2088 74.8816 66.2088C77.8976 66.2088 79.3536 64.6072 79.3536 62.4024C79.3536 61.4872 78.8752 59.948 76.816 58.8664C78.3968 57.3272 79.312 55.6008 79.312 54.2696C79.312 51.8984 77.6064 50.2344 73.5296 50.2344C69.0576 50.2344 66 52.4392 66 54.7688C66 55.5176 66.3328 55.996 66.8944 55.996C67.0608 55.996 67.248 55.9544 67.3728 55.892C68.1424 54.3528 69.9104 53.7704 71.72 53.5416ZM75.3808 63.7544C74.5904 63.7544 72.9472 63.2344 71.304 62.6728C71.9488 61.7576 72.3856 60.78 72.6768 59.7608C75.4016 60.9256 76.3168 61.7992 76.3168 62.8808C76.3168 63.4216 75.9008 63.7544 75.3808 63.7544ZM95.5241 56.7032C95.1289 56.7032 94.7961 56.828 94.5049 57.1816C94.4841 56.7864 94.1929 56.308 93.5273 56.308C92.8201 56.308 91.8841 56.8072 90.6985 57.7432C90.0537 57.8472 88.9929 57.9928 88.2233 58.0968C88.2233 56.9736 87.8281 56.4952 87.1209 56.4952C86.6841 56.4952 86.2681 56.7032 85.9353 57.1816C85.9145 56.516 85.2905 56.2664 84.7705 56.2664C82.5657 56.2664 80.3193 59.3448 80.3193 62.7976C80.3193 64.836 81.4841 65.8136 82.9609 65.8136C85.5609 65.8136 87.3705 62.5688 87.9321 59.9272C87.9321 59.9272 88.6393 59.8648 89.4713 59.7816C89.0969 60.6968 88.8889 61.7368 88.8889 62.7976C88.8889 64.836 90.0537 65.8136 91.5305 65.8136C92.9865 65.8136 94.0889 65.0648 95.0873 63.7128C95.3161 63.8584 95.5449 63.9208 95.9193 63.9208C97.6873 63.9208 99.0809 61.9656 99.0809 61.092C99.0809 60.6552 98.6441 60.3432 98.2697 60.3432C97.5833 61.4456 96.9801 61.924 96.3769 61.924C96.1689 61.924 96.0233 61.8408 95.9609 61.7784C96.4185 60.6344 96.7929 59.0952 96.7929 58.0968C96.7929 57.2856 96.3769 56.7032 95.5241 56.7032ZM83.2729 62.1736C83.2729 60.5512 84.3129 58.3464 85.5401 57.8056C85.2905 58.2008 85.2073 58.596 85.2073 58.9288C85.2073 59.428 85.4153 59.8232 85.7065 59.9272C85.4361 61.6744 84.7705 63.4424 84.0009 63.4424C83.6681 63.4424 83.2729 63.1512 83.2729 62.1736ZM91.8425 62.028C91.8425 61.1128 92.0921 59.9272 92.5705 59.1368C93.1113 58.9288 93.6729 58.5752 93.9849 58.1592C93.6937 58.8872 93.4649 59.9272 93.4649 60.572C93.4649 61.2168 93.5689 62.0072 93.7977 62.4856C93.5065 62.9432 93.0905 63.3384 92.5913 63.3384C92.2169 63.3384 91.8425 63.0472 91.8425 62.028ZM98.1287 61.3208C97.6087 62.2152 97.4423 62.964 97.4423 63.6088C97.4631 64.6904 98.3575 65.7928 99.5639 65.7928C100.042 65.7928 100.438 65.6472 100.666 65.3976C100.687 63.6296 100.729 62.7352 100.812 61.7992L101.748 61.4248C101.686 61.8824 101.644 62.4232 101.644 62.9432C101.644 65.2728 102.164 66.1672 103.495 66.1672C105.409 66.1672 108.612 62.2776 108.612 61.0712C108.612 60.6552 108.196 60.4264 107.801 60.4264C106.345 62.5272 105.513 63.4216 104.972 63.4216C104.473 63.4216 104.265 62.652 104.265 60.4056C106.407 59.3448 106.657 59.1368 106.657 58.18C106.657 57.3896 106.178 56.5576 105.159 56.5576C104.598 56.5576 103.994 56.9736 103.058 58.2632C102.788 58.6376 102.538 59.0952 102.33 59.532L100.937 60.1144C101.062 59.22 101.519 57.868 101.977 56.9528C103.495 53.9992 103.953 52.8344 103.953 51.9192C103.953 50.8584 103.391 50.4424 102.497 50.4424C99.8967 50.4424 99.0023 53.5416 98.1287 61.3208ZM107.778 59.6568C107.611 60.5304 106.946 62.9432 106.946 64.3368C106.946 65.4184 107.382 65.9384 108.589 65.9384C110.69 65.9384 114.059 62.6728 114.059 61.092C114.059 60.676 113.664 60.3848 113.269 60.3848C112.187 62.0696 110.96 63.2552 110.315 63.2552C110.128 63.2552 110.024 63.172 110.024 62.9432C110.024 62.4232 111.002 58.804 111.563 56.7864C113.123 53.8536 113.539 52.8344 113.539 51.9192C113.539 50.8584 112.978 50.4424 112.083 50.4424C110.44 50.4424 108.963 52.1272 108.589 54.9352C108.402 56.3496 108.027 58.3048 107.778 59.6568ZM116.904 58.8664C116.904 59.4904 116.654 60.1352 115.49 60.3432C115.635 58.8872 116.197 58.18 116.488 58.18C116.738 58.18 116.904 58.4296 116.904 58.8664ZM115.406 65.8552C118.11 65.8552 121.584 62.548 121.584 61.0088C121.584 60.676 121.293 60.3432 120.794 60.3224C119.608 62.132 117.778 63.3384 116.363 63.3384C115.552 63.3384 115.365 62.8184 115.365 61.8824C118.214 61.2376 119.234 59.8856 119.234 58.1384C119.234 56.6824 118.443 55.996 117.008 55.996C114.99 55.996 112.432 59.1992 112.432 62.34C112.432 64.5864 113.368 65.8552 115.406 65.8552ZM125.19 57.7224C124.837 57.6184 124.441 57.4728 124.213 57.348C124.483 56.8904 124.92 56.5784 125.419 56.308C125.461 56.1832 125.481 56.0376 125.481 55.892C125.481 55.3304 125.003 54.9976 124.296 54.9976C123.131 54.9976 120.947 57.0568 120.947 58.5128C120.947 58.908 121.093 59.1784 121.259 59.3656C120.905 60.2184 120.51 60.7384 119.969 61.508C119.865 61.6536 119.824 61.8408 119.824 62.0072C119.824 62.444 120.136 62.8184 120.656 62.8184C121.342 62.0488 121.821 61.3208 122.465 60.0936C122.923 60.2808 123.152 60.4056 123.152 60.6552C123.152 61.196 122.133 62.964 122.133 64.3368C122.133 65.5224 122.84 66.084 124.109 66.084C126.022 66.084 129.579 62.3816 129.579 61.0712C129.579 60.7592 129.225 60.4264 128.705 60.4264C127.603 62.1528 126.147 63.4424 125.565 63.4424C125.294 63.4424 125.211 63.2344 125.211 62.9432C125.211 62.4232 125.627 61.404 126.105 60.4472C126.438 59.7816 126.667 59.2824 126.667 58.8664C126.667 58.3672 126.417 58.076 125.19 57.7224Z" fill="white"/>
<path opacity="0.1" fill-rule="evenodd" clip-rule="evenodd" d="M83.2305 59.5689C83.2305 59.5689 106.459 39.158 126.453 57.9563C112.904 57.7188 104.65 59.6203 98.9628 64.2709C97.5296 65.4429 95.0946 65.5151 94.0926 66.6917C91.5588 66.602 92.8446 67.3853 91.1628 66.7152C89.7321 66.1452 88.622 62.3549 86.3981 62.3581C84.8578 62.3603 83.2305 59.5689 83.2305 59.5689Z" fill="#FCFDFE"/>
</g>
<defs>
<filter id="filter0_d_0_2162" x="-38" y="-51" width="271.579" height="224.989" filterUnits="userSpaceOnUse" color-interpolation-filters="sRGB">
<feFlood flood-opacity="0" result="BackgroundImageFix"/>
<feColorMatrix in="SourceAlpha" type="matrix" values="0 0 0 0 0 0 0 0 0 0 0 0 0 0 0 0 0 0 127 0" result="hardAlpha"/>
<feOffset dy="3"/>
<feGaussianBlur stdDeviation="52"/>
<feColorMatrix type="matrix" values="0 0 0 0 0.0086723 0 0 0 0 0.0778216 0 0 0 0 0.190189 0 0 0 1 0"/>
<feBlend mode="normal" in2="BackgroundImageFix" result="effect1_dropShadow_0_2162"/>
<feBlend mode="normal" in="SourceGraphic" in2="effect1_dropShadow_0_2162" result="shape"/>
</filter>
</defs>
</svg>
