<svg width="60" height="59" viewBox="0 0 60 59" fill="none" xmlns="http://www.w3.org/2000/svg">
<path d="M59.4429 23.8124C59.7484 25.3503 59.9323 26.931 59.9846 28.5443L57.9856 28.609C57.9952 28.9048 58 29.2018 58 29.5C58 29.7982 57.9952 30.0952 57.9856 30.391L59.9846 30.4557C59.9323 32.069 59.7484 33.6497 59.4429 35.1876L57.4812 34.7979C57.3654 35.381 57.2309 35.9574 57.0782 36.5266L59.0099 37.0448C58.5946 38.5929 58.0545 40.0913 57.4009 41.5288L55.5803 40.701C55.3347 41.241 55.0719 41.772 54.7925 42.2931L56.5551 43.2381C55.8019 44.643 54.9368 45.9809 53.9714 47.2403L52.3841 46.0235C52.0232 46.4942 51.6473 46.9533 51.257 47.4L52.763 48.716C51.718 49.9118 50.5773 51.0244 49.3524 52.0422L48.0742 50.504C47.6182 50.8829 47.1497 51.2478 46.6694 51.5979L47.8475 53.2141C46.5685 54.1464 45.2115 54.9809 43.7879 55.7067L42.8796 53.9248C42.3521 54.1937 41.8148 54.4466 41.2684 54.6828L42.062 56.5186C40.6151 57.1441 39.1083 57.6605 37.5525 58.0573L37.0583 56.1193C36.4859 56.2653 35.9063 56.3939 35.3202 56.5046L35.6913 58.4699C34.1514 58.7606 32.5696 58.9356 30.9557 58.9853L30.8942 56.9863C30.5974 56.9954 30.2993 57 30 57C29.7007 57 29.4026 56.9954 29.1058 56.9863L29.0443 58.9853C27.4304 58.9356 25.8486 58.7606 24.3087 58.4699L24.6798 56.5046C24.0937 56.3939 23.5141 56.2653 22.9417 56.1193L22.4475 58.0573C20.8917 57.6605 19.3849 57.1441 17.938 56.5186L18.7316 54.6828C18.1852 54.4466 17.6479 54.1937 17.1204 53.9248L16.2121 55.7067C14.7885 54.9809 13.4315 54.1463 12.1525 53.2141L13.3306 51.5979C12.8503 51.2478 12.3818 50.8829 11.9258 50.504L10.6476 52.0422C9.42273 51.0244 8.28197 49.9118 7.23699 48.716L8.74301 47.4C8.35268 46.9533 7.97675 46.4942 7.61591 46.0235L6.02862 47.2403C5.06322 45.9809 4.19808 44.643 3.44487 43.2381L5.20752 42.2931C4.92811 41.772 4.6653 41.241 4.41974 40.701L2.5991 41.5288C1.94548 40.0913 1.40541 38.5929 0.990113 37.0447L2.92182 36.5266C2.76914 35.9574 2.63457 35.381 2.51876 34.7979L0.557085 35.1876C0.251618 33.6497 0.0676614 32.069 0.0154441 30.4557L2.0144 30.391C2.00482 30.0952 2 29.7982 2 29.5C2 29.2018 2.00482 28.9048 2.0144 28.609L0.0154443 28.5443C0.0676618 26.931 0.251619 25.3503 0.557086 23.8124L2.51876 24.2021C2.63457 23.619 2.76914 23.0426 2.92182 22.4734L0.990115 21.9552C1.40541 20.4071 1.94548 18.9087 2.5991 17.4712L4.41974 18.299C4.6653 17.759 4.92811 17.228 5.20752 16.7069L3.44487 15.7619C4.19809 14.357 5.06323 13.0191 6.02862 11.7597L7.61591 12.9765C7.97675 12.5058 8.35268 12.0467 8.74301 11.6L7.23699 10.284C8.28197 9.08817 9.42272 7.9756 10.6476 6.9578L11.9258 8.49603C12.3818 8.11711 12.8503 7.75223 13.3306 7.4021L12.1525 5.78591C13.4315 4.85365 14.7885 4.01906 16.2121 3.29334L17.1204 5.07518C17.6479 4.80628 18.1852 4.5534 18.7316 4.31718L17.938 2.48138C19.3849 1.85587 20.8917 1.33945 22.4475 0.942726L22.9417 2.88071C23.5141 2.73474 24.0937 2.60611 24.6798 2.49542L24.3087 0.530147C25.8486 0.239364 27.4304 0.0643535 29.0443 0.0146866L29.1058 2.01374C29.4026 2.0046 29.7007 2 30 2C30.2993 2 30.5974 2.0046 30.8942 2.01374L30.9557 0.0146866C32.5696 0.0643533 34.1514 0.239364 35.6913 0.530148L35.3202 2.49542C35.9063 2.60611 36.4859 2.73474 37.0583 2.88071L37.5525 0.942726C39.1083 1.33945 40.6151 1.85587 42.062 2.48138L41.2684 4.31718C41.8148 4.5534 42.3521 4.80628 42.8796 5.07518L43.7879 3.29334C45.2115 4.01906 46.5685 4.85365 47.8475 5.78591L46.6694 7.4021C47.1497 7.75223 47.6182 8.11711 48.0742 8.49603L49.3524 6.9578C50.5773 7.9756 51.718 9.08817 52.763 10.284L51.257 11.6C51.6473 12.0467 52.0232 12.5058 52.3841 12.9765L53.9714 11.7597C54.9368 13.0191 55.8019 14.357 56.5551 15.7619L54.7925 16.7069C55.0719 17.228 55.3347 17.759 55.5803 18.299L57.4009 17.4712C58.0545 18.9087 58.5946 20.4071 59.0099 21.9553L57.0782 22.4734C57.2309 23.0426 57.3654 23.619 57.4812 24.2021L59.4429 23.8124Z" stroke="#EDEDED" stroke-width="4" stroke-linejoin="bevel" stroke-dasharray="2 5"/>
<g clip-path="url(#clip0_0_2508)">
<path d="M30 20C24.4772 20 20 24.4772 20 30C20 35.5229 24.4772 40 30 40C35.5229 40 40 35.5229 40 30C39.9942 24.4796 35.5204 20.0059 30 20ZM30.7143 30C30.7143 30.3945 30.3945 30.7143 30 30.7143H24.2857C23.8912 30.7143 23.5714 30.3945 23.5714 30C23.5714 29.6055 23.8912 29.2857 24.2857 29.2857H29.2858V24.2857C29.2858 23.8912 29.6056 23.5714 30.0001 23.5714C30.3946 23.5714 30.7143 23.8912 30.7143 24.2857V30Z" fill="#858595"/>
</g>
<defs>
<clipPath id="clip0_0_2508">
<rect width="20" height="20" fill="white" transform="translate(20 20)"/>
</clipPath>
</defs>
</svg>
