<svg width="18" height="18" viewBox="0 0 18 18" fill="none" xmlns="http://www.w3.org/2000/svg">
<path d="M14.6306 4.8605C14.6596 4.62478 14.6747 4.38478 14.6747 4.14124C14.6747 2.09413 13.0152 0.43457 10.9681 0.43457H4.77343C4.38377 0.43457 4.05109 0.715959 3.98645 1.1002L1.70389 14.6669C1.62198 15.1537 1.99726 15.5974 2.49087 15.5974H4.7564C5.14606 15.5974 5.485 15.3162 5.54961 14.9319C5.54961 14.9319 5.55339 14.9094 5.56022 14.8688H5.56025L5.24453 16.7454C5.1724 17.1744 5.50314 17.5655 5.9382 17.5655H7.9202C8.26366 17.5655 8.55689 17.3174 8.61383 16.9788L9.17691 13.6322C9.27398 13.0553 9.77342 12.6329 10.3584 12.6329H10.8791C13.7073 12.6329 16.0001 10.3401 16.0001 7.51191C16.0001 6.41751 15.4591 5.45011 14.6306 4.8605Z" fill="#002987"/>
<path d="M14.6303 4.8606C14.2758 7.74404 11.8183 9.97679 8.83904 9.97679H7.11039C6.72023 9.97679 6.38327 10.2367 6.27757 10.6041L5.2443 16.7454C5.17213 17.1745 5.50287 17.5656 5.93793 17.5656H7.91993C8.26339 17.5656 8.55662 17.3176 8.61357 16.9789L9.17664 13.6323C9.27371 13.0554 9.77315 12.633 10.3581 12.633H10.8788C13.7071 12.633 15.9998 10.3402 15.9998 7.51201C15.9998 6.4176 15.4588 5.45021 14.6303 4.8606Z" fill="#0085CC"/>
<path d="M7.11044 9.9772H8.83909C11.8184 9.9772 14.2759 7.74446 14.6303 4.86104C14.0988 4.48276 13.4491 4.25952 12.7469 4.25952H8.23503C7.72133 4.25952 7.28272 4.63048 7.19747 5.13705L6.27759 10.6045C6.38328 10.237 6.72028 9.9772 7.11044 9.9772Z" fill="#00186A"/>
</svg>
