<?xml version="1.0" standalone="no"?>
<!DOCTYPE svg PUBLIC "-//W3C//DTD SVG 20010904//EN"
 "http://www.w3.org/TR/2001/REC-SVG-20010904/DTD/svg10.dtd">
<svg version="1.0" xmlns="http://www.w3.org/2000/svg"
 width="860.000000pt" height="1017.000000pt" viewBox="0 0 860.000000 1017.000000"
 preserveAspectRatio="xMidYMid meet">
<metadata>
Created by potrace 1.16, written by Peter Selinger 2001-2019
</metadata>
<g transform="translate(0.000000,1017.000000) scale(0.100000,-0.100000)"
fill="#ffffff" stroke="none">
<path d="M4144 9736 c-238 -55 -421 -201 -528 -425 -53 -111 -69 -199 -64
-344 9 -213 68 -348 223 -502 76 -77 105 -98 185 -138 122 -60 207 -80 340
-80 133 0 218 20 340 80 80 40 109 61 185 138 155 154 214 289 223 502 5 147
-11 235 -67 349 -98 201 -256 338 -466 404 -90 28 -281 36 -371 16z"/>
<path d="M3560 8100 c-196 -35 -367 -165 -451 -345 -16 -33 -215 -707 -444
-1499 -333 -1153 -415 -1450 -415 -1496 0 -174 124 -305 290 -304 101 1 185
55 243 156 14 24 151 446 306 938 155 492 286 905 291 918 10 24 48 31 55 10
2 -7 11 -256 20 -554 l15 -541 -311 -2329 c-233 -1750 -309 -2346 -306 -2396
5 -78 36 -139 94 -187 70 -57 104 -63 385 -59 237 3 255 4 294 25 49 26 111
92 130 140 9 20 126 921 277 2119 144 1146 264 2084 267 2084 3 0 123 -938
267 -2084 147 -1170 268 -2099 276 -2118 20 -49 72 -104 126 -136 l46 -27 253
-3 c298 -4 327 2 402 77 53 53 80 118 80 193 0 27 -140 1095 -310 2375 l-310
2326 15 541 c9 298 18 547 20 554 7 21 45 14 55 -10 5 -13 136 -426 291 -918
155 -492 292 -914 306 -938 58 -101 142 -155 243 -156 166 -1 290 130 290 304
0 46 -82 343 -415 1496 -288 998 -426 1460 -450 1509 -73 150 -203 263 -365
318 -64 22 -72 22 -790 23 -399 1 -745 -2 -770 -6z"/>
</g>
</svg>
