<?xml version="1.0" standalone="no"?>
<!DOCTYPE svg PUBLIC "-//W3C//DTD SVG 20010904//EN"
 "http://www.w3.org/TR/2001/REC-SVG-20010904/DTD/svg10.dtd">
<svg version="1.0" xmlns="http://www.w3.org/2000/svg"
 width="612.000000pt" height="612.000000pt" viewBox="0 0 612.000000 612.000000"
 preserveAspectRatio="xMidYMid meet">
<metadata>
Created by potrace 1.16, written by Peter Selinger 2001-2019
</metadata>
<g transform="translate(0.000000,612.000000) scale(0.100000,-0.100000)"
fill="#000000" stroke="none">
<path d="M2775 5084 c-49 -7 -133 -23 -185 -35 -293 -67 -619 -231 -845 -426
-44 -38 -90 -78 -103 -88 -30 -26 -175 -194 -229 -265 -196 -262 -331 -595
-377 -929 -20 -142 -21 -405 -1 -554 118 -903 837 -1625 1744 -1751 143 -20
405 -21 555 -1 905 119 1632 846 1751 1752 20 149 19 412 -1 554 -126 906
-849 1626 -1751 1744 -141 19 -434 18 -558 -1z m483 -155 c356 -39 683 -173
967 -394 103 -80 284 -268 358 -372 223 -313 338 -649 354 -1033 21 -528 -180
-1036 -559 -1407 -85 -84 -177 -163 -189 -163 -4 0 -9 165 -12 368 -5 382 -8
418 -55 552 -87 251 -284 458 -537 565 l-64 27 -93 -46 c-142 -70 -196 -81
-378 -80 -142 0 -162 3 -235 28 -44 15 -108 43 -143 62 -34 19 -67 34 -73 34
-22 0 -178 -79 -240 -121 -159 -106 -298 -288 -361 -469 -47 -135 -50 -169
-55 -552 -3 -203 -8 -368 -12 -368 -26 0 -261 228 -346 335 -527 671 -541
1599 -34 2286 78 106 240 272 344 354 389 304 883 447 1363 394z"/>
<path d="M2900 4454 c-81 -17 -229 -90 -295 -145 -241 -200 -326 -526 -214
-819 130 -340 523 -534 868 -428 373 114 589 488 500 865 -31 131 -133 290
-249 386 -63 53 -212 125 -295 142 -87 18 -229 18 -315 -1z"/>
</g>
</svg>
