<svg width="60" height="59" viewBox="0 0 60 59" fill="none" xmlns="http://www.w3.org/2000/svg">
<path d="M59.4429 23.8124C59.7484 25.3503 59.9323 26.931 59.9846 28.5443L57.9856 28.609C57.9952 28.9048 58 29.2018 58 29.5C58 29.7982 57.9952 30.0952 57.9856 30.391L59.9846 30.4557C59.9323 32.069 59.7484 33.6497 59.4429 35.1876L57.4812 34.7979C57.3654 35.381 57.2309 35.9574 57.0782 36.5266L59.0099 37.0448C58.5946 38.5929 58.0545 40.0913 57.4009 41.5288L55.5803 40.701C55.3347 41.241 55.0719 41.772 54.7925 42.2931L56.5551 43.2381C55.8019 44.643 54.9368 45.9809 53.9714 47.2403L52.3841 46.0235C52.0232 46.4942 51.6473 46.9533 51.257 47.4L52.763 48.716C51.718 49.9118 50.5773 51.0244 49.3524 52.0422L48.0742 50.504C47.6182 50.8829 47.1497 51.2478 46.6694 51.5979L47.8475 53.2141C46.5685 54.1464 45.2115 54.9809 43.7879 55.7067L42.8796 53.9248C42.3521 54.1937 41.8148 54.4466 41.2684 54.6828L42.062 56.5186C40.6151 57.1441 39.1083 57.6605 37.5525 58.0573L37.0583 56.1193C36.4859 56.2653 35.9063 56.3939 35.3202 56.5046L35.6913 58.4699C34.1514 58.7606 32.5696 58.9356 30.9557 58.9853L30.8942 56.9863C30.5974 56.9954 30.2993 57 30 57C29.7007 57 29.4026 56.9954 29.1058 56.9863L29.0443 58.9853C27.4304 58.9356 25.8486 58.7606 24.3087 58.4699L24.6798 56.5046C24.0937 56.3939 23.5141 56.2653 22.9417 56.1193L22.4475 58.0573C20.8917 57.6605 19.3849 57.1441 17.938 56.5186L18.7316 54.6828C18.1852 54.4466 17.6479 54.1937 17.1204 53.9248L16.2121 55.7067C14.7885 54.9809 13.4315 54.1463 12.1525 53.2141L13.3306 51.5979C12.8503 51.2478 12.3818 50.8829 11.9258 50.504L10.6476 52.0422C9.42273 51.0244 8.28197 49.9118 7.23699 48.716L8.74301 47.4C8.35268 46.9533 7.97675 46.4942 7.61591 46.0235L6.02862 47.2403C5.06322 45.9809 4.19808 44.643 3.44487 43.2381L5.20752 42.2931C4.92811 41.772 4.6653 41.241 4.41974 40.701L2.5991 41.5288C1.94548 40.0913 1.40541 38.5929 0.990113 37.0447L2.92182 36.5266C2.76914 35.9574 2.63457 35.381 2.51876 34.7979L0.557085 35.1876C0.251618 33.6497 0.0676614 32.069 0.0154441 30.4557L2.0144 30.391C2.00482 30.0952 2 29.7982 2 29.5C2 29.2018 2.00482 28.9048 2.0144 28.609L0.0154443 28.5443C0.0676618 26.931 0.251619 25.3503 0.557086 23.8124L2.51876 24.2021C2.63457 23.619 2.76914 23.0426 2.92182 22.4734L0.990115 21.9552C1.40541 20.4071 1.94548 18.9087 2.5991 17.4712L4.41974 18.299C4.6653 17.759 4.92811 17.228 5.20752 16.7069L3.44487 15.7619C4.19809 14.357 5.06323 13.0191 6.02862 11.7597L7.61591 12.9765C7.97675 12.5058 8.35268 12.0467 8.74301 11.6L7.23699 10.284C8.28197 9.08817 9.42272 7.9756 10.6476 6.9578L11.9258 8.49603C12.3818 8.11711 12.8503 7.75223 13.3306 7.4021L12.1525 5.78591C13.4315 4.85365 14.7885 4.01906 16.2121 3.29334L17.1204 5.07518C17.6479 4.80628 18.1852 4.5534 18.7316 4.31718L17.938 2.48138C19.3849 1.85587 20.8917 1.33945 22.4475 0.942726L22.9417 2.88071C23.5141 2.73474 24.0937 2.60611 24.6798 2.49542L24.3087 0.530147C25.8486 0.239364 27.4304 0.0643535 29.0443 0.0146866L29.1058 2.01374C29.4026 2.0046 29.7007 2 30 2C30.2993 2 30.5974 2.0046 30.8942 2.01374L30.9557 0.0146866C32.5696 0.0643533 34.1514 0.239364 35.6913 0.530148L35.3202 2.49542C35.9063 2.60611 36.4859 2.73474 37.0583 2.88071L37.5525 0.942726C39.1083 1.33945 40.6151 1.85587 42.062 2.48138L41.2684 4.31718C41.8148 4.5534 42.3521 4.80628 42.8796 5.07518L43.7879 3.29334C45.2115 4.01906 46.5685 4.85365 47.8475 5.78591L46.6694 7.4021C47.1497 7.75223 47.6182 8.11711 48.0742 8.49603L49.3524 6.9578C50.5773 7.9756 51.718 9.08817 52.763 10.284L51.257 11.6C51.6473 12.0467 52.0232 12.5058 52.3841 12.9765L53.9714 11.7597C54.9368 13.0191 55.8019 14.357 56.5551 15.7619L54.7925 16.7069C55.0719 17.228 55.3347 17.759 55.5803 18.299L57.4009 17.4712C58.0545 18.9087 58.5946 20.4071 59.0099 21.9553L57.0782 22.4734C57.2309 23.0426 57.3654 23.619 57.4812 24.2021L59.4429 23.8124Z" stroke="#EDEDED" stroke-width="4" stroke-linejoin="bevel" stroke-dasharray="2 5"/>
<path fill-rule="evenodd" clip-rule="evenodd" d="M21.75 26.5C21.75 21.813 25.563 18 30.25 18C34.937 18 38.75 21.813 38.75 26.5C38.75 34.717 30.91 41.589 30.577 41.878C30.483 41.959 30.367 42 30.25 42C30.133 42 30.017 41.959 29.923 41.878C29.589 41.59 21.75 34.718 21.75 26.5ZM33.75 28.908C34.331 28.701 34.75 28.151 34.75 27.5H34.751V26C34.751 25.811 34.644 25.638 34.475 25.553L33.66 25.146L32.953 23.026C32.748 22.413 32.176 22.001 31.53 22.001H28.971C28.324 22.001 27.753 22.413 27.548 23.026L26.841 25.146L26.026 25.553C25.857 25.638 25.75 25.811 25.75 26V27.5C25.75 28.151 26.169 28.701 26.75 28.908V29.5C26.75 29.776 26.974 30 27.25 30C27.526 30 27.75 29.776 27.75 29.5V29H32.75V29.5C32.75 29.776 32.974 30 33.25 30C33.526 30 33.75 29.776 33.75 29.5V28.908Z" fill="#858595"/>
<path d="M28.25 28H27.25C26.974 28 26.75 27.776 26.75 27.5C26.75 27.224 26.974 27 27.25 27H28.25C28.526 27 28.75 27.224 28.75 27.5C28.75 27.776 28.526 28 28.25 28Z" fill="#858595"/>
<path d="M33.25 28H32.25C31.974 28 31.75 27.776 31.75 27.5C31.75 27.224 31.974 27 32.25 27H33.25C33.526 27 33.75 27.224 33.75 27.5C33.75 27.776 33.526 28 33.25 28Z" fill="#858595"/>
<path d="M34.7499 26.5001C34.6979 26.5001 34.6449 26.4921 34.5919 26.4741L33.0919 25.9741C32.8299 25.8871 32.6889 25.6041 32.7759 25.3421C32.8629 25.0801 33.1429 24.9381 33.4079 25.0261L34.9079 25.5261C35.1699 25.6131 35.3109 25.8961 35.2239 26.1581C35.1539 26.3681 34.9589 26.5001 34.7499 26.5001Z" fill="white"/>
<path d="M25.25 26.5004C25.026 26.5004 24.822 26.3494 24.766 26.1214C24.699 25.8534 24.862 25.5824 25.13 25.5154L27.13 25.0154C27.397 24.9474 27.669 25.1114 27.736 25.3794C27.803 25.6474 27.64 25.9184 27.372 25.9854L25.372 26.4854C25.331 26.4954 25.29 26.5004 25.25 26.5004Z" fill="white"/>
<path d="M33.25 26H27.25C26.974 26 26.75 25.776 26.75 25.5C26.75 25.224 26.974 25 27.25 25H33.25C33.526 25 33.75 25.224 33.75 25.5C33.75 25.776 33.526 26 33.25 26Z" fill="#858595"/>
</svg>
