<svg width="14" height="14" viewBox="0 0 14 14" fill="none" xmlns="http://www.w3.org/2000/svg">
<g clip-path="url(#clip0_0_12624)">
<path d="M12.3471 5.93047H8.06936V1.6527C8.06936 1.36906 7.95669 1.09704 7.75613 0.896485C7.55557 0.695925 7.28355 0.583252 6.99992 0.583252C6.71628 0.583252 6.44427 0.695925 6.24371 0.896485C6.04315 1.09704 5.93047 1.36906 5.93047 1.6527V5.93047H1.6527C1.36906 5.93047 1.09704 6.04315 0.896485 6.24371C0.695925 6.44427 0.583252 6.71628 0.583252 6.99992C0.583252 7.28355 0.695925 7.55557 0.896485 7.75613C1.09704 7.95669 1.36906 8.06936 1.6527 8.06936H5.93047V12.3471C5.93047 12.6308 6.04315 12.9028 6.24371 13.1034C6.44427 13.3039 6.71628 13.4166 6.99992 13.4166C7.28355 13.4166 7.55557 13.3039 7.75613 13.1034C7.95669 12.9028 8.06936 12.6308 8.06936 12.3471V8.06936H12.3471C12.6308 8.06936 12.9028 7.95669 13.1034 7.75613C13.3039 7.55557 13.4166 7.28355 13.4166 6.99992C13.4166 6.71628 13.3039 6.44427 13.1034 6.24371C12.9028 6.04315 12.6308 5.93047 12.3471 5.93047Z" fill="#0076FF"/>
</g>
<defs>
<clipPath id="clip0_0_12624">
<rect width="14" height="14" fill="white"/>
</clipPath>
</defs>
</svg>
