<svg width="35" height="37" viewBox="0 0 35 37" fill="none" xmlns="http://www.w3.org/2000/svg">
<path d="M33.3643 15.0383C33.1521 14.8266 32.8974 14.6573 32.6003 14.5726L33.1096 14.0646C34.1282 13.0061 34.0858 11.3127 33.0672 10.3389C32.7276 10.0426 32.3032 9.83087 31.8364 9.74619C31.8788 9.57684 31.8788 9.4075 31.8788 9.23815C31.8788 8.51842 31.6242 7.84102 31.1149 7.37531C30.3509 6.65558 29.2474 6.52857 28.3137 6.95194C28.1864 6.61325 27.9742 6.27455 27.7195 5.97819C26.7009 5.00444 25.0032 5.08911 23.9846 6.14754L21.8625 8.39141L21.6503 8.17972C20.5468 7.07896 19.1038 6.48624 17.5335 6.48624C16.9817 6.48624 16.4724 6.57091 15.9631 6.69792C15.3689 5.72417 14.3079 5.08911 13.1195 5.08911C11.2945 5.08911 9.80903 6.57091 9.80903 8.39141C9.80903 9.32282 10.191 10.1696 10.8276 10.7623L9.12996 12.4558C8.32357 13.2602 7.77182 14.2763 7.55961 15.4194C6.88054 15.9697 3.40031 18.7217 2.33926 20.3728C0.386934 23.5057 -0.37702 26.3847 0.174725 28.8826C0.768911 31.6768 2.59391 34.1324 5.09798 35.4448C6.45612 36.1645 7.94159 36.5032 9.4695 36.5032C10.4457 36.5032 11.4218 36.3762 12.398 36.0799C14.3079 35.4871 15.8782 34.0053 17.2364 32.6929C17.2788 32.6506 17.3212 32.6082 17.3637 32.5659C17.9154 32.9893 18.8067 33.4973 19.7829 33.5396C20.4195 33.5396 21.0137 33.3703 21.523 32.9893C22.1172 33.455 23.0509 34.0053 24.1968 34.0053C24.6213 34.0053 25.1306 33.9207 25.5974 33.709C27.9742 32.7352 28.3986 30.7031 27.9742 28.9249C28.4835 28.4592 29.1625 27.6124 29.205 26.427L30.4358 25.1992C31.5393 24.0985 32.1335 22.659 32.1335 21.0925C32.1335 20.7962 32.091 20.4998 32.0486 20.2035L33.3643 18.8487C34.3829 17.7056 34.3829 16.0121 33.3643 15.0383ZM31.9213 11.5667C32.2608 11.863 32.2183 12.4981 31.8788 12.8791L29.6718 15.2077L29.2474 15.6734L27.9742 14.4456L29.7567 12.5828C29.7567 12.5828 29.7567 12.5828 29.7992 12.5404L30.6056 11.6937C30.9451 11.3127 31.5817 11.2703 31.9213 11.5667ZM27.7619 9.66152C27.8044 9.66152 27.8044 9.66152 27.7619 9.66152L28.6532 8.68776C28.823 8.51842 29.0776 8.39141 29.3323 8.39141C29.4596 8.39141 29.7567 8.39141 29.9689 8.60309C30.1811 8.81478 30.2236 9.0688 30.1811 9.19581C30.1811 9.44983 30.0963 9.70385 29.884 9.91554L26.7009 13.2602L25.555 12.0324L27.7619 9.66152ZM25.2579 7.29064C25.5974 6.90961 26.234 6.86727 26.5736 7.16363C26.9131 7.45999 26.8707 8.09505 26.5311 8.47608L26.4038 8.64543L24.3242 10.8046L23.0933 9.57684L25.2579 7.29064ZM13.1619 6.7826C13.6712 6.7826 14.1381 7.03662 14.4352 7.37531C14.6474 7.67167 14.8172 8.01037 14.8172 8.39141C14.8172 9.28048 14.0957 10.0002 13.2044 10.0002C12.78 10.0002 12.398 9.83087 12.1009 9.53451C11.8038 9.23815 11.5916 8.81478 11.5916 8.34907C11.5067 7.54466 12.2282 6.7826 13.1619 6.7826ZM17.2364 30.322C16.8119 30.7031 16.43 31.0841 16.0055 31.4651C14.7323 32.6929 13.3742 34.0053 11.8462 34.4711C9.85148 35.1061 7.6445 34.8944 5.86194 33.963C3.82473 32.9046 2.29682 30.8724 1.82996 28.5439C1.27821 25.9613 2.59391 23.1671 3.78229 21.2619C4.5038 20.1188 6.92299 18.0866 8.23868 17.0282C8.53578 17.1975 8.91775 17.5786 9.1724 18.1289C9.21485 18.2559 9.12996 18.8487 8.70554 19.272C7.85671 20.2035 6.20147 21.6006 6.20147 21.6006C5.86194 21.8969 5.8195 22.4473 6.11659 22.786C6.41368 23.1247 6.96543 23.1671 7.30496 22.8707C7.3474 22.8284 8.23868 22.0663 9.08752 21.2619C9.12996 21.2195 9.21485 21.1772 9.25729 21.1349L9.93636 20.4575L16.8119 13.2178C17.0242 13.0061 17.3637 12.8791 17.6608 12.9215C17.8306 12.9215 18.0003 13.0061 18.1276 13.1332C18.4672 13.4295 18.4247 14.0646 18.0852 14.4456L17.9154 14.5726L17.0242 15.504L12.016 20.7962C11.6765 21.1349 11.7189 21.6853 12.0585 21.9816C12.2282 22.151 12.4404 22.1933 12.6526 22.1933C12.8648 22.1933 13.1195 22.1086 13.2893 21.9393L19.316 15.5887L20.2073 14.615C20.3771 14.4456 20.6317 14.3186 20.8864 14.3186C20.9288 14.3186 20.9713 14.3186 21.0561 14.3186C21.1835 14.3186 21.3957 14.3609 21.523 14.5303C21.7352 14.742 21.7776 14.996 21.7352 15.123C21.7352 15.377 21.6503 15.631 21.4381 15.8427L21.0137 16.3084L14.7747 22.913C14.4352 23.2517 14.4776 23.8021 14.8172 24.0985C14.9869 24.2678 15.1992 24.3102 15.4114 24.3102C15.6236 24.3102 15.8782 24.2255 16.048 24.0561L21.3108 18.51C21.3108 18.51 21.3108 18.51 21.3532 18.4676L22.1596 17.6209C22.4143 17.3669 22.7963 17.2399 23.0933 17.3245C23.2207 17.3669 23.348 17.4092 23.4753 17.4939C23.6875 17.7056 23.73 18.0443 23.6875 18.3406C23.6451 18.51 23.5602 18.6793 23.4329 18.8063L21.2259 21.1349L20.4195 21.9816L16.9817 25.5803C16.6422 25.919 16.6846 26.4693 17.0242 26.7657C17.1939 26.9351 17.4061 26.9774 17.6183 26.9774C17.8305 26.9774 18.0852 26.8927 18.255 26.7234L22.4992 22.2356C22.6689 22.0663 22.9236 21.9393 23.1782 21.9393C23.3056 21.9393 23.6026 21.9393 23.8149 22.151C24.0271 22.3626 24.0695 22.6167 24.0271 22.7437C24.0271 22.9977 23.9422 23.2517 23.73 23.4634L17.2364 30.322ZM26.5736 27.8665L25.9794 28.2052L26.1916 28.8402C26.234 28.9672 26.2765 29.1366 26.3189 29.2636C26.7433 30.9147 25.8521 31.7191 24.9608 32.1002C23.5178 32.6929 22.2021 31.2958 22.1596 31.2534L22.1172 31.2111L21.523 30.5337L21.0137 31.0841L20.8864 31.2111C20.5468 31.5921 20.1649 31.7615 19.7829 31.7615C19.3585 31.7615 18.934 31.5498 18.5945 31.3381L19.316 30.576L20.5468 29.2636L24.8759 24.6912C26.8282 24.7335 27.2951 25.3262 27.4224 25.7496C27.4649 25.8766 27.4649 25.9613 27.4649 26.046C27.6771 27.1044 26.616 27.8241 26.5736 27.8665ZM30.3933 21.7276C30.266 22.5743 29.8416 23.3364 29.2474 23.9291L28.6957 24.4795C28.1439 23.6328 27.0829 23.1671 25.5974 22.9977C25.6399 22.2356 25.4277 21.4736 24.8335 20.9655C24.6213 20.7538 24.3666 20.5845 24.0695 20.4998L24.5788 19.9918C25.2579 19.272 25.4701 18.2559 25.2154 17.3669C25.0881 16.9435 24.8759 16.6048 24.5788 16.2661C24.4515 16.1391 24.3242 16.0544 24.1968 15.9697C23.9422 15.8004 23.6875 15.7157 23.3904 15.6734C23.4329 15.504 23.4329 15.3347 23.4329 15.1653C23.4329 14.9113 23.3904 14.615 23.3056 14.3609C23.1782 13.9376 22.966 13.5565 22.6689 13.3025C22.5416 13.1755 22.4143 13.0908 22.2869 13.0061C21.6503 12.6251 20.8439 12.5404 20.1224 12.7521C20.0375 12.7945 19.9526 12.7945 19.8678 12.8368C19.7404 12.4981 19.5282 12.1594 19.2736 11.863C19.1462 11.736 19.0189 11.6514 18.8916 11.5667C17.873 10.9316 16.43 11.101 15.5811 12.0324L10.6154 17.2822C10.2335 16.5201 9.68171 16.0121 9.21485 15.6734C9.38461 14.9113 9.76659 14.2339 10.3183 13.6835L12.398 11.609C12.6526 11.6514 12.9073 11.6937 13.1619 11.6937C14.9869 11.6937 16.4724 10.2119 16.4724 8.39141C16.4724 8.34907 16.4724 8.30673 16.4724 8.30673C16.8119 8.22206 17.1939 8.13738 17.5759 8.13738C18.6794 8.13738 19.7404 8.56075 20.5044 9.32282L20.759 9.57684L21.9474 10.7623L23.1782 11.9901L24.3666 13.1755L25.5974 14.4033L26.7858 15.5887L28.0166 16.8165L29.205 18.0019C29.6294 18.4253 29.9689 18.9757 30.1811 19.5261C30.3509 19.9494 30.4358 20.4575 30.4358 20.9232C30.4782 21.2619 30.4358 21.5159 30.3933 21.7276ZM32.1759 17.5786L31.4968 18.2983C31.2422 17.7902 30.9026 17.3245 30.4782 16.9012L30.4358 16.8588L30.9026 16.3508C31.2422 15.9697 31.8788 15.9274 32.2183 16.2238C32.5154 16.5625 32.5154 17.2399 32.1759 17.5786Z" fill="#56B64E"/>

<path d="M18.2553 5.00409C19.6559 5.00409 20.7593 3.86099 20.7593 2.50619C20.7593 1.10907 19.6134 0.00830078 18.2553 0.00830078C16.8971 0.00830078 15.7512 1.1514 15.7512 2.50619C15.7512 3.86099 16.8547 5.00409 18.2553 5.00409ZM18.2553 1.70179C18.7221 1.70179 19.0617 2.08282 19.0617 2.50619C19.0617 2.92957 18.6797 3.3106 18.2553 3.3106C17.8309 3.3106 17.4489 2.92957 17.4489 2.50619C17.4489 2.08282 17.7884 1.70179 18.2553 1.70179Z" fill="#56B64E"/>
</svg>
